<svg viewBox="0 0 24 24" xmlns="http://www.w3.org/2000/svg" xmlns:xlink="http://www.w3.org/1999/xlink" width="24.000000" height="24.000000" fill="none">
	<rect id="fail" width="24.000000" height="24.000000" x="0.000000" y="0.000000" />
	<path id="减去顶层" d="M19.4246 19.4246C17.5245 21.3247 14.8995 22.5 12 22.5C9.10053 22.5 6.47553 21.3247 4.57538 19.4246C2.67525 17.5245 1.5 14.8995 1.5 12C1.5 9.10053 2.67525 6.47553 4.57538 4.57538C6.47553 2.67525 9.10053 1.5 12 1.5C14.8995 1.5 17.5245 2.67525 19.4246 4.57538C21.3247 6.47553 22.5 9.10053 22.5 12C22.5 14.8995 21.3247 17.5245 19.4246 19.4246ZM12.0045 10.9951L8.43864 7.42526C8.15531 7.14161 7.70984 7.14136 7.42619 7.42469C7.14254 7.70801 7.14229 8.15349 7.42562 8.43714L10.9913 12.0068L7.43339 15.5594C7.14969 15.8427 7.14936 16.2882 7.43264 16.5719C7.71591 16.8555 8.16139 16.8559 8.44508 16.5726L12.0031 13.0198L15.5444 16.5651C15.8277 16.8487 16.2732 16.8489 16.5568 16.5656C16.8405 16.2823 16.8407 15.8368 16.5574 15.5532L13.0163 12.0081L16.5745 8.45532C16.8581 8.17204 16.8585 7.72657 16.5752 7.44287C16.2919 7.15917 15.8465 7.15884 15.5628 7.44212L12.0045 10.9951Z" fill="rgb(245,34,45)" fill-rule="evenodd" />
</svg>
