<svg viewBox="0 0 24 24" xmlns="http://www.w3.org/2000/svg" xmlns:xlink="http://www.w3.org/1999/xlink" width="24.000000" height="24.000000" fill="none">
	<rect id="success" width="24.000000" height="24.000000" x="0.000000" y="0.000000" />
	<path id="矢量 646" d="M11.9209 1C12.6729 1.00781 13.4072 1.09375 14.125 1.25781C14.1641 1.26562 14.2031 1.27344 14.2422 1.28125C14.8271 1.42188 15.4004 1.60938 15.9639 1.84375C16.002 1.85938 16.0391 1.88281 16.0771 1.89844C16.6426 2.14062 17.1787 2.42969 17.6865 2.76562L17.6865 2.76562C17.7246 2.78906 17.7627 2.82031 17.8008 2.84375C18.3652 3.22656 18.8945 3.66406 19.3867 4.15625C19.4531 4.21875 19.5176 4.28906 19.5811 4.35156C20.0273 4.82031 20.4248 5.32031 20.7754 5.85156L20.7754 5.85156C20.8203 5.92188 20.8633 5.99219 20.9062 6.0625C21.207 6.53906 21.4707 7.04688 21.6953 7.57812C21.7266 7.65625 21.7578 7.72656 21.7871 7.80469C21.9971 8.32812 22.1631 8.86719 22.2852 9.41406C22.3066 9.51562 22.3271 9.60938 22.3457 9.70312C22.4766 10.3828 22.542 11.0703 22.542 11.7734C22.542 12.5781 22.4561 13.3594 22.2852 14.125C22.1455 14.75 21.9492 15.3594 21.6953 15.9609C21.4385 16.5703 21.1318 17.1484 20.7754 17.6875C20.375 18.2969 19.9121 18.8594 19.3867 19.3906C18.8613 19.9141 18.2949 20.375 17.6865 20.7734L17.6865 20.7734C17.1455 21.1328 16.5703 21.4375 15.9639 21.6953C15.3633 21.9453 14.75 22.1484 14.124 22.2891C13.3594 22.4531 12.5742 22.5391 11.7705 22.5391C10.9668 22.5391 10.1826 22.4531 9.41699 22.2891C9.37793 22.2734 9.33887 22.2656 9.2998 22.2578C8.71484 22.1172 8.14062 21.9297 7.57812 21.6953C6.9707 21.4375 6.39648 21.1328 5.85547 20.7734L5.85547 20.7734C5.24707 20.375 4.68066 19.9141 4.1543 19.3906C3.62891 18.8594 3.16602 18.2969 2.7666 17.6875L2.7666 17.6875C2.41016 17.1484 2.10352 16.5703 1.84668 15.9609C1.59277 15.3672 1.39648 14.75 1.25684 14.125L1.25684 14.125L1.25586 14.125C1.23535 14.0312 1.21484 13.9297 1.19629 13.8359C1.06543 13.1641 1 12.4766 1 11.7734C1 10.9688 1.08496 10.1797 1.25586 9.41406L1.25586 9.41406C1.39648 8.78906 1.59277 8.17969 1.84668 7.57812C1.8623 7.53906 1.87891 7.5 1.89551 7.46094C2.1416 6.89844 2.43262 6.35938 2.7666 5.85156L2.7666 5.85156C2.79102 5.82031 2.81641 5.78125 2.8418 5.74219C3.22461 5.17969 3.66211 4.64844 4.1543 4.15625C4.2207 4.08594 4.28711 4.02344 4.35352 3.96094C4.82227 3.51562 5.32324 3.11719 5.85547 2.76562L5.85547 2.76562L5.85547 2.76562C5.92285 2.71875 5.99121 2.67969 6.05957 2.63281C6.54102 2.33594 7.04688 2.07031 7.57812 1.84375C7.65332 1.8125 7.72852 1.78125 7.80371 1.75781C8.33203 1.54688 8.86914 1.375 9.41699 1.25781L9.41699 1.25781C9.5127 1.23438 9.6084 1.21875 9.70508 1.19531C10.3789 1.0625 11.0674 1 11.7705 1C11.8213 1 11.8711 1 11.9209 1ZM11.7705 2.375C11.0605 2.375 10.3662 2.45312 9.69043 2.60156C9.1543 2.72656 8.62891 2.89844 8.11328 3.10938C7.58887 3.33594 7.0918 3.60156 6.62305 3.90625L6.62305 3.90625C6.15527 4.21094 5.71484 4.5625 5.30176 4.95312C5.24316 5.01562 5.18457 5.07031 5.12695 5.125C4.66504 5.58594 4.25781 6.08594 3.90723 6.625L3.90723 6.625C3.59961 7.09375 3.33496 7.58594 3.11328 8.11719C2.89551 8.625 2.72559 9.15625 2.60449 9.6875C2.45117 10.3672 2.375 11.0625 2.375 11.7734C2.375 12.4844 2.45117 13.1719 2.60449 13.8516C2.6123 13.8828 2.62012 13.9219 2.62793 13.9531C2.74707 14.4531 2.90918 14.9453 3.11328 15.4297C3.12695 15.4609 3.14062 15.4922 3.15527 15.5234C3.36816 16.0156 3.61914 16.4766 3.90723 16.9219C3.92871 16.9531 3.95117 16.9844 3.97363 17.0156C4.30957 17.5156 4.69336 17.9844 5.12695 18.4141C5.18457 18.4688 5.24316 18.5312 5.30176 18.5859C5.71484 18.9766 6.15527 19.3281 6.62305 19.6328L6.62305 19.6328L6.62402 19.6328C6.68164 19.6719 6.74121 19.7109 6.80078 19.75C7.2168 20.0078 7.6543 20.2344 8.11328 20.4297C8.17773 20.4531 8.24219 20.4844 8.30762 20.5078C8.75977 20.6875 9.2207 20.8281 9.69043 20.9375L9.69043 20.9375C10.3672 21.0938 11.0605 21.1641 11.7705 21.1641C11.8154 21.1641 11.8594 21.1641 11.9043 21.1641C12.5684 21.1562 13.2168 21.0781 13.8516 20.9375C13.8848 20.9297 13.918 20.9219 13.9512 20.9141C14.4531 20.7969 14.9453 20.6328 15.4277 20.4297C15.4609 20.4141 15.4932 20.3984 15.5264 20.3828C16.0146 20.1719 16.4785 19.9219 16.918 19.6328C16.9521 19.6094 16.9854 19.5938 17.0186 19.5703C17.5156 19.2344 17.9814 18.8516 18.415 18.4141C18.877 17.9531 19.2832 17.4531 19.6348 16.9219C19.6729 16.8594 19.7109 16.7969 19.748 16.7422C20.0078 16.3281 20.2344 15.8906 20.4287 15.4297C20.4561 15.3672 20.4824 15.2969 20.5078 15.2344C20.6875 14.7812 20.8311 14.3203 20.9375 13.8516C20.9561 13.7656 20.9746 13.6797 20.9912 13.5938C21.1084 13 21.167 12.3906 21.167 11.7734C21.167 11.0625 21.0898 10.3672 20.9375 9.6875C20.9297 9.65625 20.9219 9.625 20.9141 9.59375C20.7949 9.08594 20.6328 8.59375 20.4287 8.11719C20.207 7.58594 19.9424 7.09375 19.6348 6.625C19.3271 6.15625 18.9775 5.71094 18.5859 5.30469C18.5293 5.24219 18.4727 5.1875 18.415 5.125C17.9521 4.66406 17.4541 4.25781 16.9189 3.90625L16.9189 3.90625C16.8594 3.86719 16.8008 3.82812 16.7412 3.79688C16.3252 3.53125 15.8867 3.30469 15.4277 3.10938C14.9131 2.89844 14.3877 2.72656 13.8516 2.60156L13.8516 2.60156C13.7666 2.58594 13.6816 2.57031 13.5967 2.54688C13.001 2.42969 12.3926 2.375 11.7705 2.375ZM18.2852 8.71875C18.2793 8.875 18.2148 9.03906 18.0938 9.16406L11.1182 16.5C11.1143 16.5 11.1104 16.5078 11.1064 16.5078C11.1025 16.5156 11.0986 16.5156 11.0947 16.5234C10.957 16.6484 10.793 16.7188 10.6035 16.7109C10.4141 16.7031 10.2529 16.6328 10.1221 16.5L6.18945 12.375C6.05371 12.2266 5.98926 12.0469 5.99805 11.8672C6.00488 11.6953 6.07715 11.5312 6.21289 11.3984C6.49219 11.1328 6.91992 11.1406 7.18555 11.4219L10.6191 15.0234L17.0977 8.21094C17.3633 7.9375 17.791 7.92188 18.0693 8.1875C18.2217 8.33594 18.2939 8.52344 18.2852 8.71875Z" fill="rgb(92,179,0)" fill-rule="evenodd" />
</svg>
